<svg xmlns="http://www.w3.org/2000/svg" viewBox="0 0 900 600" role="img" aria-labelledby="t2">
  <title id="t2">Regard  extensions de cils et cheveux</title>
  <defs>
    <linearGradient id="re-bg" x1="0%" y1="100%" x2="100%" y2="0%">
      <stop offset="0%" stop-color="#fdf8f5"/>
      <stop offset="50%" stop-color="#fce4ec"/>
      <stop offset="100%" stop-color="#fde8e0"/>
    </linearGradient>
    <linearGradient id="re-iris" x1="0%" y1="0%" x2="100%" y2="100%">
      <stop offset="0%" stop-color="#c9788e"/>
      <stop offset="100%" stop-color="#9c847c"/>
    </linearGradient>
  </defs>
  <rect width="900" height="600" fill="url(#re-bg)"/>
  <!-- Ril -->
  <ellipse cx="450" cy="300" rx="180" ry="95" fill="none" stroke="#e8a4b8" stroke-width="3" opacity="0.4"/>
  <ellipse cx="450" cy="300" rx="65" ry="52" fill="#fff" opacity="0.95"/>
  <ellipse cx="450" cy="300" rx="38" ry="36" fill="url(#re-iris)"/>
  <ellipse cx="462" cy="292" rx="14" ry="14" fill="#1a1a1a" opacity="0.85"/>
  <ellipse cx="458" cy="288" rx="5" ry="5" fill="#fff" opacity="0.9"/>
  <!-- Cils -->
  <g fill="none" stroke="#3d2c33" stroke-width="2.5" stroke-linecap="round" opacity="0.85">
    <path d="M285 295 Q320 210 450 185 Q580 210 615 295"/>
    <path d="M292 305 Q325 225 450 198 Q575 225 608 305"/>
    <path d="M300 318 Q330 242 450 212 Q570 242 600 318"/>
  </g>
  <!-- Mèches / extensions cheveux (lignes fluides à droite) -->
  <g fill="none" stroke="#c9788e" stroke-width="3" stroke-linecap="round" opacity="0.45">
    <path d="M620 80 Q700 200 650 400 Q620 520 580 580"/>
    <path d="M680 100 Q760 220 700 420 Q660 540 620 600"/>
    <path d="M740 120 Q800 240 750 440"/>
  </g>
  <text x="450" y="560" text-anchor="middle" fill="#c9788e" font-family="Georgia,serif" font-size="22" opacity="0.5">Cils &amp; extensions</text>
</svg>
